<?xml version="1.0" encoding="UTF-8"?>
<svg
  width="256"
  height="256"
  viewBox="0 0 256 256"
  fill="none"
  xmlns="http://www.w3.org/2000/svg"
  role="img"
  aria-labelledby="title desc"
  shape-rendering="crispEdges"
>
  <title id="title">Ethereum Bazaar logomark</title>
  <desc id="desc">A bold Ethereum-inspired diamond with a subtle midline market awning and a peer-to-peer connector motif.</desc>

  <defs>
    <linearGradient id="ebz-grad-primary" x1="0" y1="0" x2="1" y2="1">
      <stop offset="0%" stop-color="#EAD9BF"/>
      <stop offset="100%" stop-color="#CFAE7A"/>
    </linearGradient>
    <linearGradient id="ebz-grad-shadow" x1="0" y1="0" x2="1" y2="1">
      <stop offset="0%" stop-color="#A98257"/>
      <stop offset="100%" stop-color="#6E4F2F"/>
    </linearGradient>
    <linearGradient id="ebz-grad-gloss" x1="0" y1="0" x2="0" y2="1">
      <stop offset="0%" stop-color="#FFFFFF" stop-opacity="0.85"/>
      <stop offset="100%" stop-color="#FFFFFF" stop-opacity="0"/>
    </linearGradient>

    <!-- Removed drop shadow filter to avoid any rasterization artifacts during scaling -->
    <!-- Clip for upper-left facet to align highlight perfectly -->
    <clipPath id="ebz-clip-upleft">
      <polygon points="128,20 52,128 128,128"/>
    </clipPath>
  </defs>

  <!-- Ethereum-inspired diamond, enlarged and bolder -->
  <g>
    <!-- Back silhouette for crisp edges -->
    <polygon points="128,20 52,128 128,236 204,128" fill="#0F172A" opacity="0.05"/>

    <!-- Upper left facet -->
    <polygon points="128,20 52,128 128,128" fill="url(#ebz-grad-primary)"/>
    <!-- Upper right facet -->
    <polygon points="128,20 128,128 204,128" fill="url(#ebz-grad-shadow)"/>
    <!-- Lower left facet -->
    <polygon points="52,128 128,236 128,128" fill="url(#ebz-grad-shadow)"/>
    <!-- Lower right facet -->
    <polygon points="128,128 128,236 204,128" fill="url(#ebz-grad-primary)"/>

    <!-- Removed midline awning rectangles per request -->

    <!-- Removed scalloped valance per request -->

    <!-- Gloss highlight, aligned via clip to the upper-left facet -->
    <g clip-path="url(#ebz-clip-upleft)" opacity="0.7">
      <rect x="52" y="20" width="76" height="70" fill="url(#ebz-grad-gloss)"/>
    </g>

    <!-- Bold outline -->
    <polygon
      points="128,20 52,128 128,236 204,128"
      fill="none"
      stroke="#000000"
      stroke-width="3"
      shape-rendering="crispEdges"
      vector-effect="non-scaling-stroke"
      stroke-linejoin="miter"
      stroke-miterlimit="3"
    />
  </g>
</svg>


